<?xml version="1.0" encoding="UTF-8" standalone="no"?>
<svg width="24px" height="24px" viewBox="0 0 24 24" version="1.1" xmlns="http://www.w3.org/2000/svg" xmlns:xlink="http://www.w3.org/1999/xlink" xmlns:sketch="http://www.bohemiancoding.com/sketch/ns">
    <!-- Generator: Sketch 3.4 (15588) - http://www.bohemiancoding.com/sketch -->
    <title>icon_slideshare</title>
    <desc>Created with Sketch.</desc>
    <defs></defs>
    <g id="Page-1" stroke="none" stroke-width="1" fill="none" fill-rule="evenodd" sketch:type="MSPage">
        <g id="icon_slideshare" sketch:type="MSArtboardGroup" fill="#000000">
            <path d="M11.7864051,10.1703264 C11.7864051,10.930814 11.4955001,11.5836325 10.9136812,12.1288014 C10.3318623,12.6739702 9.63323201,12.9465506 8.81776934,12.9465506 C8.00230666,12.9465506 7.30367636,12.6739702 6.72185749,12.1288014 C6.14003861,11.5836325 5.84913354,10.930814 5.84913354,10.1703264 C5.84913354,9.40067619 6.14003861,8.74556712 6.72185749,8.20497951 C7.30367636,7.66439189 8.00230666,7.39410214 8.81776934,7.39410214 C9.63323201,7.39410214 10.3318623,7.66439189 10.9136812,8.20497951 C11.4955001,8.74556712 11.7864051,9.40067619 11.7864051,10.1703264 L11.7864051,10.1703264 Z M18.6857346,10.1703264 C18.6857346,10.930814 18.3971202,11.5836325 17.8198825,12.1288014 C17.2426449,12.6739702 16.541724,12.9465506 15.7170988,12.9465506 C14.9016362,12.9465506 14.2030059,12.6739702 13.621187,12.1288014 C13.0393681,11.5836325 12.748463,10.930814 12.748463,10.1703264 C12.748463,9.40067619 13.0393681,8.74556712 13.621187,8.20497951 C14.2030059,7.66439189 14.9016362,7.39410214 15.7170988,7.39410214 C16.541724,7.39410214 17.2426449,7.66439189 17.8198825,8.20497951 C18.3971202,8.74556712 18.6857346,9.40067619 18.6857346,10.1703264 L18.6857346,10.1703264 Z M21.7780636,12.6441895 L21.7780636,3.47715212 C21.7780636,2.68001445 21.6314658,2.11423844 21.3382657,1.77980711 C21.0450656,1.44537579 20.5365544,1.27816264 19.8127168,1.27816264 L4.52973985,1.27816264 C3.76925218,1.27816264 3.25386918,1.43392283 2.98357537,1.7454479 C2.71328156,2.05697297 2.57813668,2.63420194 2.57813668,3.47715212 L2.57813668,12.7266516 C2.97212427,12.9373892 3.3775589,13.1206365 3.79445274,13.276399 C4.21134658,13.4321615 4.58242234,13.5604346 4.90769116,13.6612222 C5.23295998,13.7620097 5.60403575,13.8467616 6.02092959,13.9154803 C6.43782343,13.9841991 6.76308737,14.0345921 6.99673117,14.0666608 C7.23037497,14.0987296 7.55105773,14.1170543 7.95878907,14.1216356 C8.36652041,14.1262168 8.63451957,14.1285074 8.7627946,14.1285074 C8.89106963,14.1285074 9.14990643,14.1193451 9.53931276,14.1010201 C9.9287191,14.0826951 10.1325817,14.0735327 10.1509067,14.0735327 C10.7739568,14.0643702 11.2091692,14.1880621 11.4565567,14.4446122 C11.5115317,14.4995872 11.5573436,14.5408178 11.5939936,14.5683053 C11.8322186,14.7973679 12.1116707,15.0310082 12.4323583,15.2692332 C12.4964958,14.4354455 13.0370753,14.0368827 14.054113,14.0735327 C14.0999256,14.0735327 14.2671387,14.0804045 14.5557575,14.0941482 C14.8443763,14.107892 15.0413672,14.1170543 15.1467359,14.1216356 C15.2521047,14.1262168 15.4605485,14.130798 15.7720736,14.1353793 C16.0835986,14.1399605 16.3264013,14.1353793 16.5004888,14.1216356 C16.6745764,14.1078918 16.9242508,14.0872765 17.2495196,14.059789 C17.5747885,14.0323015 17.8542406,13.9933614 18.0878844,13.9429677 C18.3215282,13.8925739 18.6055615,13.830728 18.9399928,13.757428 C19.2744241,13.6841279 19.5813633,13.5947949 19.8608196,13.4894261 C20.140276,13.3840573 20.4495058,13.2603654 20.7885183,13.1183466 C21.1275309,12.9763279 21.457376,12.8182771 21.7780636,12.6441895 L21.7780636,12.6441895 Z M23.8148461,12.2478884 C22.7155738,13.5775384 21.0258088,14.7019234 18.7455003,15.6210774 C19.5086315,18.1643675 19.4041568,20.2391257 18.4320731,21.8454141 C17.83247,22.8538064 17.0012147,23.5141595 15.938282,23.8264934 C14.993453,24.1120558 14.16674,24.0451281 13.4581183,23.6257083 C12.6768173,23.1705932 12.3043423,22.4388506 12.3406818,21.4304584 L12.3270546,17.0667298 L12.3270546,17.0533441 C12.2543754,17.0354965 12.1430871,17.0087254 11.9931864,16.9730301 C11.8432856,16.9373348 11.7365397,16.9150256 11.6729454,16.9061018 L11.6593182,21.4304584 C11.6956577,22.4477744 11.3186403,23.1795171 10.5282545,23.6257083 C9.81054782,24.0451281 8.97929245,24.1120558 8.03446343,23.8264934 C6.97153079,23.5052357 6.14481781,22.8359588 5.55429967,21.8186428 C4.60038576,20.2123543 4.50045342,18.1465198 5.25449966,15.6210774 C2.97419117,14.7019234 1.28442616,13.5775384 0.185153943,12.2478884 C-0.041968416,11.9177069 -0.0601379322,11.6366107 0.13064485,11.4045912 C0.321427631,11.1725718 0.593970374,11.1770336 0.948281255,11.4179769 C0.975535938,11.4358245 1.02550211,11.4670574 1.09818126,11.5116766 C1.17086042,11.5562957 1.22082659,11.5919905 1.24808127,11.6187619 L1.24808127,2.32910666 C1.24808127,1.68659126 1.46157309,1.13778426 1.88856312,0.682669192 C2.31555316,0.227554122 2.83338437,0 3.44207229,0 L20.571555,0 C21.1802429,0 21.6980741,0.227554122 22.1250642,0.682669192 C22.5520542,1.13778426 22.765546,1.68659126 22.765546,2.32910666 L22.765546,11.6187619 L23.0517187,11.4179769 C23.4060296,11.1770336 23.6785724,11.1725718 23.8693552,11.4045912 C24.0601379,11.6366107 24.0419684,11.9177069 23.8148461,12.2478884 L23.8148461,12.2478884 Z" id="" sketch:type="MSShapeGroup"></path>
        </g>
    </g>
</svg>