<?xml version="1.0" encoding="utf-8"?>
<!-- Generator: Adobe Illustrator 18.1.1, SVG Export Plug-In . SVG Version: 6.00 Build 0)  -->
<svg version="1.1" id="Layer_1" xmlns:sketch="http://www.bohemiancoding.com/sketch/ns"
	 xmlns="http://www.w3.org/2000/svg" xmlns:xlink="http://www.w3.org/1999/xlink" x="0px" y="0px" viewBox="0 0 612 792"
	 enable-background="new 0 0 612 792" xml:space="preserve">
<title>icon_linkedin</title>
<desc>Created with Sketch.</desc>
<g id="Page-1" sketch:type="MSPage">
	<g id="icon_linkedin" sketch:type="MSArtboardGroup">
		<g enable-background="new    ">
			<path fill="#FFFFFF" d="M114.8,243L114.8,243C76.5,243,51,217.5,51,184.4s25.5-58.7,63.8-58.7s63.8,25.5,63.8,58.7
				S153,243,114.8,243z M170.8,628H58.6V288.9h112.2V628z M576.3,628H464.1V447c0-45.9-15.3-76.5-56.1-76.5
				c-30.6,0-48.4,20.4-58.6,40.8c-2.6,7.6-2.6,17.8-2.6,28V628H232.1c2.6-306,0-339.1,0-339.1h112.2v48.5l0,0
				c15.3-23,40.8-56.1,102-56.1c74,0,130,48.4,130,153V628z"/>
		</g>
	</g>
</g>
</svg>
