<?xml version="1.0" encoding="utf-8"?>
<!-- Generator: Adobe Illustrator 18.0.0, SVG Export Plug-In . SVG Version: 6.00 Build 0)  -->
<!DOCTYPE svg PUBLIC "-//W3C//DTD SVG 1.1//EN" "http://www.w3.org/Graphics/SVG/1.1/DTD/svg11.dtd">
<svg version="1.1" id="Layer_1" xmlns:sketch="http://www.bohemiancoding.com/sketch/ns"
	 xmlns="http://www.w3.org/2000/svg" xmlns:xlink="http://www.w3.org/1999/xlink" x="0px" y="0px" viewBox="0 0 24 24"
	 enable-background="new 0 0 24 24" xml:space="preserve">
<title>icon_linkedin</title>
<desc>Created with Sketch.</desc>
<g id="Page-1" sketch:type="MSPage">
	<g id="icon_linkedin" sketch:type="MSArtboardGroup">
		<g enable-background="new    ">
			<path d="M4.5,6L4.5,6C3,6,2,5,2,3.7c0-1.3,1-2.3,2.5-2.3c1.5,0,2.5,1,2.5,2.3C7,5,6,6,4.5,6z M6.7,21.1H2.3V7.8h4.4V21.1z
				 M22.6,21.1h-4.4V14c0-1.8-0.6-3-2.2-3c-1.2,0-1.9,0.8-2.3,1.6c-0.1,0.3-0.1,0.7-0.1,1.1v7.4H9.1c0.1-12,0-13.3,0-13.3h4.4v1.9h0
				c0.6-0.9,1.6-2.2,4-2.2c2.9,0,5.1,1.9,5.1,6V21.1z"/>
		</g>
	</g>
</g>
</svg>
