<?xml version="1.0" encoding="UTF-8" standalone="no"?>
<svg width="24px" height="24px" viewBox="0 0 24 24" version="1.1" xmlns="http://www.w3.org/2000/svg" xmlns:xlink="http://www.w3.org/1999/xlink" xmlns:sketch="http://www.bohemiancoding.com/sketch/ns">
    <!-- Generator: Sketch 3.4 (15588) - http://www.bohemiancoding.com/sketch -->
    <title>icon_blog</title>
    <desc>Created with Sketch.</desc>
    <defs></defs>
    <g id="Page-1" stroke="none" stroke-width="1" fill="none" fill-rule="evenodd" sketch:type="MSPage">
        <g id="icon_blog" sketch:type="MSArtboardGroup" fill="#000000">
            <path d="M19,1 L5,1 C2.8,1 1,2.8 1,5 L1,15 C1,17.2 2.8,19 5,19 L6,19 L6,23 L14,19 L19,19 C21.2,19 23,17.2 23,15 L23,5 C23,2.8 21.2,1 19,1 L19,1 Z M5,11 L19,11 L19,13 L5,13 L5,11 Z M5,6 L19,6 L19,8 L5,8 L5,6 Z" id="Imported-Layers" sketch:type="MSShapeGroup"></path>
        </g>
    </g>
</svg>