<?xml version="1.0" encoding="utf-8"?>
<!-- Generator: Adobe Illustrator 15.1.0, SVG Export Plug-In . SVG Version: 6.00 Build 0)  -->
<!DOCTYPE svg PUBLIC "-//W3C//DTD SVG 1.1//EN" "http://www.w3.org/Graphics/SVG/1.1/DTD/svg11.dtd">
<svg version="1.1" id="logo" xmlns="http://www.w3.org/2000/svg" xmlns:xlink="http://www.w3.org/1999/xlink" x="0px" y="0px"
	 width="566.929px" height="425.197px" viewBox="0 0 566.929 425.197" enable-background="new 0 0 566.929 425.197"
	 xml:space="preserve">
<g>
	<g>
		<g>
			<g>
				<g>
					<rect x="53.452" y="44.984" opacity="0" fill="none" width="58.394" height="58.393"/>
				</g>
			</g>
		</g>
	</g>
	<path fill="#D1D1D1" d="M86.195,59.584c-1.139-0.275-2.32-0.428-3.543-0.428s-2.406,0.152-3.543,0.428v3.967h7.086L86.195,59.584z"
		/>
	<rect x="79.109" y="70.637" fill="#474747" width="7.086" height="7.088"/>
	<rect x="79.109" y="77.725" fill="#C9C9C9" width="7.086" height="7.086"/>
	<path fill="#A3A3A3" d="M79.109,88.777c1.137,0.275,2.32,0.428,3.543,0.428s2.404-0.152,3.543-0.428l0-3.967h-7.086V88.777z"/>
	<rect x="79.109" y="63.551" fill="#E6E6E6" width="7.086" height="7.086"/>
	<rect x="72.022" y="70.637" fill="#E6E6E6" width="7.087" height="7.088"/>
	<rect x="72.022" y="77.725" fill="#B5B5B5" width="7.087" height="7.086"/>
	<path fill="#757575" d="M72.022,84.811c1.919,1.918,4.36,3.307,7.087,3.967v-3.967H72.022z"/>
	<rect x="72.022" y="63.551" fill="#C9C9C9" width="7.087" height="7.086"/>
	<path fill="#A3A3A3" d="M79.109,59.584c-2.727,0.66-5.168,2.047-7.087,3.967h7.087V59.584z"/>
	<path fill="#757575" d="M72.022,84.811v-7.086l-3.966-0.002C68.717,80.449,70.103,82.893,72.022,84.811z"/>
	<path fill="#A3A3A3" d="M72.022,63.551c-1.919,1.918-3.305,4.361-3.966,7.086h3.966V63.551z"/>
	<rect x="86.195" y="70.637" fill="#C9C9C9" width="7.086" height="7.088"/>
	<rect x="86.195" y="77.725" fill="#B5B5B5" width="7.086" height="7.086"/>
	<path fill="#757575" d="M93.282,84.811h-7.086l0,3.967C88.92,88.117,91.364,86.73,93.282,84.811z"/>
	<rect x="86.195" y="63.551" fill="#B5B5B5" width="7.086" height="7.086"/>
	<path fill="#757575" d="M86.195,59.584l0,3.967h7.086C91.364,61.631,88.92,60.244,86.195,59.584z"/>
	<path fill="#757575" d="M93.282,84.811c1.919-1.918,3.305-4.361,3.966-7.088l-3.966,0.002V84.811z"/>
	<path fill="#757575" d="M93.282,63.551v7.086h3.966C96.587,67.912,95.202,65.469,93.282,63.551z"/>
	<path fill="#D1D1D1" d="M68.056,70.637c-0.275,1.141-0.427,2.32-0.427,3.543s0.152,2.406,0.427,3.543l3.966,0.002v-7.088H68.056z"
		/>
	<path fill="#A3A3A3" d="M97.248,77.723c0.275-1.137,0.428-2.32,0.428-3.543s-0.153-2.402-0.428-3.543h-3.966v7.088L97.248,77.723z"
		/>
	<g>
		<g>
			<path fill="#FFFFFF" d="M99.685,81.506h1.022c0.208,0,0.392,0.025,0.524,0.078c0.431,0.127,0.642,0.453,0.642,0.828
				c0,0.531-0.401,0.805-0.774,0.895v0.016c0.224,0.111,0.572,0.766,0.966,1.488h-0.769c-0.431-0.785-0.688-1.305-0.83-1.316h-0.114
				v1.316h-0.667V81.506z M100.514,82.967c0.343,0,0.645-0.137,0.645-0.477c0-0.203-0.087-0.357-0.267-0.402
				c-0.099-0.043-0.208-0.051-0.362-0.051h-0.178v0.93H100.514z"/>
		</g>
	</g>
	<path fill="#FFFFFF" d="M103.796,83.205c0,1.689-1.371,3.061-3.062,3.061c-1.691,0-3.062-1.371-3.062-3.061
		c0-1.691,1.37-3.062,3.062-3.062C102.425,80.143,103.796,81.514,103.796,83.205z M100.733,80.787c-1.334,0-2.417,1.082-2.417,2.418
		c0,1.334,1.083,2.416,2.417,2.416c1.335,0,2.418-1.082,2.418-2.416C103.151,81.869,102.068,80.787,100.733,80.787z"/>
</g>
</svg>
