<?xml version="1.0" encoding="UTF-8" standalone="no"?>
<svg width="190px" height="31px" viewBox="0 0 190 31" version="1.1" xmlns="http://www.w3.org/2000/svg" xmlns:xlink="http://www.w3.org/1999/xlink" xmlns:sketch="http://www.bohemiancoding.com/sketch/ns">
    <!-- Generator: Sketch 3.3.3 (12081) - http://www.bohemiancoding.com/sketch -->
    <title>wolters-kluwer-logo-large</title>
    <desc>Created with Sketch.</desc>
    <defs></defs>
    <g id="Page-1" stroke="none" stroke-width="1" fill="none" fill-rule="evenodd" sketch:type="MSPage">
        <g id="wolters-kluwer-logo-large" sketch:type="MSLayerGroup">
            <g id="Group" sketch:type="MSShapeGroup">
                <g transform="translate(38.000000, 7.000000)" id="Shape" fill="#FFFFFF">
                    <path d="M17.642,18.811 L16.288,18.811 L13.194,10.119 C12.938,9.404 12.632,8.509 12.325,7.487 L12.274,7.487 C11.968,8.484 11.661,9.328 11.38,10.119 L8.158,18.811 L6.778,18.811 L0.924,1.887 L2.945,1.887 L6.703,13.135 C7.009,14.081 7.29,14.924 7.52,15.768 L7.569,15.768 C7.8,14.95 8.131,14.107 8.464,13.187 L11.381,5.21 L10.23,1.887 L12.199,1.887 L16.058,13.032 C16.389,14.005 16.723,14.821 16.954,15.64 L17.004,15.64 C17.208,14.795 17.438,14.03 17.745,13.111 L21.426,1.887 L23.395,1.887 L17.642,18.811 L17.642,18.811 Z"></path>
                    <path d="M32.271,17.558 C31.324,18.529 29.995,19.067 28.435,19.067 C26.927,19.067 25.623,18.555 24.678,17.584 C23.579,16.461 22.99,14.748 22.99,12.753 C22.99,10.76 23.605,9.098 24.678,7.974 C25.65,6.978 26.952,6.414 28.461,6.414 C30.021,6.414 31.324,6.977 32.297,7.974 C33.368,9.098 33.983,10.76 33.983,12.753 C33.983,14.747 33.369,16.434 32.271,17.558 M28.461,7.997 C26.185,7.997 24.883,9.838 24.883,12.701 C24.883,15.562 26.237,17.456 28.487,17.456 C30.737,17.456 32.091,15.562 32.091,12.701 C32.091,9.838 30.79,7.997 28.461,7.997"></path>
                    <path d="M38.533,19.066 C37.05,19.066 36.411,18.118 36.411,16.841 L36.411,0.711 L38.277,0.711 L38.277,15.998 C38.277,17.148 38.559,17.378 39.275,17.378 C39.401,17.378 39.606,17.378 39.913,17.304 L40.143,18.657 C39.581,18.939 39.147,19.066 38.533,19.066"></path>
                    <path d="M45.589,19.066 C43.852,19.066 43.006,18.044 43.006,16.484 L43.006,8.302 L41.039,8.302 L41.039,6.718 L43.006,6.718 L43.006,4.06 L44.872,3.422 L44.872,6.719 L48.579,6.719 L47.914,8.303 L44.872,8.303 L44.872,15.922 C44.872,16.945 45.255,17.404 46.049,17.404 C46.917,17.404 47.71,16.919 48.196,16.535 L48.783,17.864 C47.89,18.528 46.714,19.066 45.589,19.066"></path>
                    <path d="M51.529,13.083 C51.529,15.385 52.858,17.43 55.54,17.43 C56.563,17.43 57.689,17.021 58.404,16.56 L58.967,17.839 C58.096,18.555 56.564,19.067 55.159,19.067 C51.375,19.067 49.534,15.973 49.534,12.522 C49.534,9.02 51.528,6.414 54.442,6.414 C57.56,6.414 59.274,8.893 59.274,12.65 L59.274,13.084 L51.529,13.084 L51.529,13.083 Z M54.468,7.997 C52.677,7.997 51.552,9.582 51.552,11.499 L57.253,11.499 C57.253,9.813 56.308,7.997 54.468,7.997 L54.468,7.997 Z"></path>
                    <path d="M67.498,8.585 C67.243,8.483 66.859,8.38 66.348,8.38 C65.634,8.38 64.457,8.995 63.69,9.838 L63.69,18.811 L61.824,18.811 L61.824,6.719 L63.358,6.719 L63.615,8.099 C65.276,6.591 66.197,6.411 67.064,6.411 C67.601,6.411 68.063,6.616 68.292,6.77 L67.498,8.585 L67.498,8.585 Z"></path>
                    <path d="M134.647,13.083 C134.647,15.385 135.976,17.43 138.658,17.43 C139.681,17.43 140.807,17.021 141.522,16.56 L142.085,17.839 C141.214,18.555 139.682,19.067 138.277,19.067 C134.493,19.067 132.652,15.973 132.652,12.522 C132.652,9.02 134.646,6.414 137.56,6.414 C140.678,6.414 142.392,8.893 142.392,12.65 L142.392,13.084 L134.647,13.084 L134.647,13.083 Z M137.586,7.997 C135.795,7.997 134.67,9.582 134.67,11.499 L140.371,11.499 C140.372,9.813 139.426,7.997 137.586,7.997 L137.586,7.997 Z"></path>
                    <path d="M150.616,8.585 C150.361,8.483 149.977,8.38 149.466,8.38 C148.752,8.38 147.575,8.995 146.808,9.838 L146.808,18.811 L144.942,18.811 L144.942,6.719 L146.476,6.719 L146.733,8.099 C148.394,6.591 149.315,6.411 150.182,6.411 C150.719,6.411 151.181,6.616 151.41,6.77 L150.616,8.585 L150.616,8.585 Z"></path>
                    <path d="M72.236,19.066 C70.498,19.066 69.45,18.606 68.657,18.145 L69.372,16.688 C69.935,17.044 70.983,17.557 72.313,17.557 C73.795,17.557 74.869,16.892 74.869,15.767 C74.869,12.802 69.371,13.851 69.371,9.608 C69.371,7.869 70.625,6.413 73.386,6.413 C74.664,6.413 75.634,6.691 76.427,7.051 L76.427,8.688 C75.586,8.332 74.716,7.973 73.462,7.973 C72.235,7.973 71.213,8.407 71.213,9.506 C71.213,12.215 76.812,11.527 76.812,15.486 C76.812,18.019 74.717,19.066 72.236,19.066"></path>
                    <path d="M93.353,18.811 L86.628,11.193 L86.603,11.193 L86.603,18.811 L84.737,18.811 L84.737,1.964 L86.603,1.964 L86.603,9.71 L86.628,9.71 L92.891,2.016 L95.218,2.016 L88.288,10.298 L95.83,18.811 L93.353,18.811 Z"></path>
                    <path d="M99.742,19.066 C98.258,19.066 97.62,18.118 97.62,16.841 L97.62,0.711 L99.485,0.711 L99.485,15.998 C99.485,17.148 99.766,17.378 100.482,17.378 C100.609,17.378 100.815,17.378 101.122,17.304 L101.351,18.657 C100.789,18.939 100.354,19.066 99.742,19.066"></path>
                    <path d="M111.294,18.811 L110.81,17.558 C109.914,18.325 108.508,19.067 106.898,19.067 C105.264,19.067 103.219,18.224 103.219,14.823 L103.219,6.719 L105.082,6.719 L105.082,14.644 C105.082,16.664 105.926,17.456 107.436,17.456 C108.969,17.456 110.145,16.484 110.656,15.845 L110.656,6.719 L112.523,6.719 L112.523,13.749 C112.523,17.558 112.598,18.299 112.78,18.811 L111.294,18.811 L111.294,18.811 Z"></path>
                    <path d="M127.886,18.811 L126.197,18.811 L123.181,9.121 L123.104,9.121 L120.114,18.811 L118.479,18.811 L114.438,6.719 L116.331,6.719 L119.296,16.254 L119.372,16.254 L122.363,6.719 L124.051,6.719 L127.067,16.28 L127.144,16.28 L130.058,6.719 L131.872,6.719 L127.886,18.811 Z"></path>
                </g>
                <path d="M30.673,23.608 L31.355,23.608 C31.494,23.608 31.616,23.625 31.705,23.66 C31.992,23.744 32.132,23.962 32.132,24.212 C32.132,24.566 31.865,24.749 31.616,24.809 L31.616,24.819 C31.765,24.894 31.998,25.33 32.26,25.811 L31.748,25.811 C31.46,25.288 31.289,24.942 31.194,24.934 L31.118,24.934 L31.118,25.811 L30.673,25.811 L30.673,23.608 L30.673,23.608 Z M31.225,24.582 C31.454,24.582 31.655,24.491 31.655,24.264 C31.655,24.129 31.597,24.027 31.478,23.996 C31.412,23.967 31.339,23.962 31.236,23.962 L31.118,23.962 L31.118,24.582 L31.225,24.582 L31.225,24.582 Z" id="Shape" fill="#FFFFFF"></path>
                <path d="M19.192,0.585 C18.053,0.31 16.872,0.157 15.649,0.157 C14.426,0.157 13.243,0.309 12.106,0.585 L12.106,4.551 L19.192,4.551 L19.192,0.585 L19.192,0.585 Z" id="Shape" fill="#A0C4E6"></path>
                <rect id="Rectangle-path" fill="#EF3E42" x="12.106" y="11.638" width="7.086" height="7.087"></rect>
                <rect id="Rectangle-path" fill="#9ACD6E" x="12.106" y="18.725" width="7.086" height="7.086"></rect>
                <path d="M12.106,29.777 C13.243,30.052 14.426,30.205 15.649,30.205 C16.872,30.205 18.053,30.053 19.192,29.777 L19.192,25.81 L12.106,25.81 L12.106,29.777 L12.106,29.777 Z" id="Shape" fill="#429ED6"></path>
                <rect id="Rectangle-path" fill="#CAE3B2" x="12.106" y="4.551" width="7.086" height="7.087"></rect>
                <rect id="Rectangle-path" fill="#CAE3B2" x="5.019" y="11.638" width="7.087" height="7.087"></rect>
                <rect id="Rectangle-path" fill="#7AC143" x="5.019" y="18.725" width="7.087" height="7.086"></rect>
                <path d="M5.019,25.811 C6.938,27.73 9.379,29.118 12.106,29.778 L12.106,25.811 L5.019,25.811 L5.019,25.811 Z" id="Shape" fill="#007BC6"></path>
                <rect id="Rectangle-path" fill="#9ACD6E" x="5.019" y="4.551" width="7.087" height="7.087"></rect>
                <path d="M12.106,0.585 C9.379,1.245 6.938,2.632 5.019,4.551 L12.106,4.551 L12.106,0.585 L12.106,0.585 Z" id="Shape" fill="#429ED6"></path>
                <path d="M5.019,25.811 L5.019,18.725 L1.053,18.724 C1.714,21.449 3.1,23.893 5.019,25.811 L5.019,25.811 Z" id="Shape" fill="#007BC6"></path>
                <path d="M5.019,4.551 C3.1,6.47 1.714,8.912 1.053,11.638 L5.019,11.638 L5.019,4.551 L5.019,4.551 Z" id="Shape" fill="#429ED6"></path>
                <rect id="Rectangle-path" fill="#9ACD6E" x="19.192" y="11.638" width="7.086" height="7.087"></rect>
                <rect id="Rectangle-path" fill="#7AC143" x="19.192" y="18.725" width="7.086" height="7.086"></rect>
                <path d="M26.279,25.811 L19.193,25.811 L19.193,29.778 C21.917,29.117 24.361,27.731 26.279,25.811 L26.279,25.811 Z" id="Shape" fill="#007BC6"></path>
                <rect id="Rectangle-path" fill="#7AC143" x="19.192" y="4.551" width="7.086" height="7.087"></rect>
                <path d="M19.192,0.585 L19.192,4.551 L26.278,4.551 C24.361,2.632 21.917,1.244 19.192,0.585 L19.192,0.585 Z" id="Shape" fill="#007BC6"></path>
                <path d="M26.279,25.811 C28.198,23.893 29.584,21.45 30.245,18.724 L26.279,18.725 L26.279,25.811 L26.279,25.811 Z" id="Shape" fill="#007BC6"></path>
                <path d="M26.279,4.551 L26.279,11.638 L30.245,11.638 C29.584,8.912 28.199,6.47 26.279,4.551 L26.279,4.551 Z" id="Shape" fill="#007BC6"></path>
                <path d="M1.053,11.638 C0.778,12.778 0.626,13.958 0.626,15.181 C0.626,16.404 0.778,17.586 1.053,18.724 L5.019,18.725 L5.019,11.638 L1.053,11.638 L1.053,11.638 Z" id="Shape" fill="#A0C4E6"></path>
                <path d="M30.245,18.724 C30.52,17.586 30.673,16.404 30.673,15.181 C30.673,13.958 30.52,12.778 30.245,11.638 L26.279,11.638 L26.279,18.725 L30.245,18.724 L30.245,18.724 Z" id="Shape" fill="#429ED6"></path>
                <path d="M33.414,24.74 C33.414,25.867 32.5,26.781 31.373,26.781 C30.246,26.781 29.332,25.867 29.332,24.74 C29.332,23.613 30.246,22.699 31.373,22.699 C32.5,22.699 33.414,23.613 33.414,24.74 L33.414,24.74 Z M31.372,23.129 C30.482,23.129 29.761,23.851 29.761,24.74 C29.761,25.629 30.483,26.351 31.372,26.351 C32.262,26.351 32.984,25.629 32.984,24.74 C32.984,23.851 32.262,23.129 31.372,23.129 L31.372,23.129 Z" id="Shape" fill="#FFFFFF"></path>
            </g>
        </g>
    </g>
</svg>